<svg xmlns="http://www.w3.org/2000/svg" width="155.024" height="96.89" viewBox="0 0 155.024 96.89"><path d="M80.083,7.712C46.274,7.712,16.971,27.4,2.571,56.157c14.4,28.758,43.7,48.445,77.512,48.445s63.111-19.687,77.512-48.445C143.2,27.4,113.89,7.712,80.083,7.712ZM118.3,33.4a73.713,73.713,0,0,1,22.623,22.753A73.714,73.714,0,0,1,118.3,78.911a71.032,71.032,0,0,1-76.437,0A73.713,73.713,0,0,1,19.241,56.157,73.71,73.71,0,0,1,41.864,33.4c.593-.378,1.192-.745,1.8-1.105a38.756,38.756,0,1,0,72.846,0q.906.54,1.8,1.105Zm-38.219,8.22A14.534,14.534,0,1,1,65.549,27.09,14.533,14.533,0,0,1,80.083,41.624Z" transform="translate(-2.571 -7.712)"/></svg>