<?xml version="1.0" encoding="utf-8"?>
<!-- Generator: Adobe Illustrator 25.2.3, SVG Export Plug-In . SVG Version: 6.00 Build 0)  -->
<svg version="1.1" id="Layer_1" xmlns="http://www.w3.org/2000/svg" xmlns:xlink="http://www.w3.org/1999/xlink" x="0px" y="0px"
	 viewBox="0 0 184.2 19" style="enable-background:new 0 0 184.2 19;" xml:space="preserve">
<style type="text/css">
	.st0{display:none;fill:none;stroke:#FF0000;stroke-width:0.5;}
	.st1{display:none;}
	.st2{display:inline;fill:#580000;}
	.st3{display:inline;}
	.st4{display:inline;fill:#7B0000;}
	.st5{display:inline;fill:#FF0000;}
	.st6{fill:none;}
	.st7{fill:none;stroke:#FF0000;}
	.st8{fill:#FF0000;}
</style>
<g transform="translate(-61 -29.205)">
	<path class="st0" d="M62,75.3h1825.3"/>
	<g transform="translate(-84 -3.545)" class="st1">
		<rect x="416" y="24.2" class="st2" width="628" height="40.1"/>
		<text transform="matrix(1 0 0 1 501 51.8333)" class="st3" style="font-family:'ArialMT'; font-size:18px;">Search by creators or collection</text>
		<path class="st3" d="M485,52.3l-3.6-3.6c-0.2-0.2-0.4-0.2-0.6-0.2h-0.6c2.5-3.2,1.9-7.9-1.3-10.4s-7.9-1.9-10.4,1.3
			s-1.9,7.9,1.3,10.4c2.7,2.1,6.4,2.1,9.1,0v0.6c0,0.2,0.1,0.4,0.2,0.6l3.6,3.6c0.3,0.3,0.9,0.3,1.2,0c0,0,0,0,0,0l1-1
			C485.3,53.2,485.3,52.7,485,52.3L485,52.3z M474.4,48.5c-2.5,0-4.6-2-4.6-4.6c0-2.5,2-4.6,4.6-4.6c2.5,0,4.6,2,4.6,4.6
			C479,46.5,476.9,48.5,474.4,48.5C474.4,48.5,474.4,48.5,474.4,48.5L474.4,48.5z"/>
	</g>
	<text transform="matrix(1 0 0 1 1045.947 48.6443)" class="st8" style="font-family:'Arial-BoldMT'; font-size:20px;">Explore</text>
	<text transform="matrix(1 0 0 1 1220.5649 48.6443)" class="st8" style="font-family:'Arial-BoldMT'; font-size:20px;">My Items</text>
	<g transform="translate(8321 -1209)" class="st1">
		<rect x="-6723.9" y="1233.6" class="st4" width="290" height="40.1"/>
		<rect x="-6726.9" y="1229.6" class="st5" width="290" height="40.1"/>
		<text transform="matrix(1 0 0 1 -6852.439 1257.3853)" class="st5" style="font-family:'Arial-BoldMT'; font-size:20px;">Mint</text>
		<text transform="matrix(1 0 0 1 -6666.144 1257.3853)" class="st3" style="font-family:'Arial-BoldMT'; font-size:20px;">Connect Wallet</text>
		<g transform="translate(-6909.857 1238.205)" class="st3">
			<rect x="0" y="-8.6" class="st6" width="163" height="40.1"/>
			<rect x="0.5" y="-8.1" class="st7" width="162" height="39.1"/>
		</g>
	</g>
	<g transform="translate(-2460.561 -5036.162)">
		<g transform="translate(2521.56 5073.969)">
			<path class="st8" d="M14.1,10.4h-2.4C3.9,10.4,0,8.2,0,3.9V3.7h8.1c0.1,1.7,1.7,2.6,4.8,2.6h0.2c0.8,0,1.6,0,2.5-0.1
				c0.5,0,1-0.2,1.5-0.4c0.3-0.1,0.5-0.3,0.6-0.5c0.1-0.2,0.2-0.4,0.2-0.6v0c0-0.3-0.1-0.6-0.3-0.8c-0.4-0.3-0.8-0.5-1.3-0.5
				c-1-0.2-2-0.3-3-0.3L9.8,2.7c-6.3-0.2-9.5-2-9.5-5.5V-3c0-0.6,0.1-1.2,0.3-1.7c0.2-0.6,0.6-1.1,1-1.5c0.6-0.5,1.2-1,2-1.2
				c1-0.4,2.1-0.7,3.2-0.8c1.5-0.2,3.1-0.3,4.6-0.3h2.3c7.8,0,11.7,1.9,11.7,5.8v0.2h-8c-0.2-1.3-1.7-1.9-4.7-1.9h-0.3
				c-0.9,0-1.9,0-2.8,0.2c-0.4,0-0.9,0.2-1.2,0.5C8.3-3.7,8.2-3.4,8.2-3.2v0c0,0.3,0.1,0.5,0.3,0.7C8.9-2.2,9.3-2,9.7-2
				c0.9,0.2,1.8,0.2,2.7,0.2l3.5,0.1c3.7,0.1,6.3,0.6,7.8,1.4c1.5,0.8,2.4,2.4,2.4,4.1v0.3c0,0.6-0.1,1.2-0.3,1.8
				c-0.2,0.6-0.6,1.2-1,1.7c-0.6,0.6-1.3,1.1-2.1,1.4c-1.1,0.5-2.3,0.8-3.5,0.9C17.6,10.3,15.9,10.4,14.1,10.4z"/>
			<path class="st8" d="M27.8-8.2h21.4v4.5H35v2.3h13.8V3H35v2.5h14.3V10H27.8L27.8-8.2z"/>
			<path class="st8" d="M51.5-8.2h7.4v13h13.4V10H51.5L51.5-8.2z"/>
			<path class="st8" d="M74.2,10V-8.2h13.7c1.9,0,3.8,0.1,5.7,0.5c1.4,0.2,2.8,0.7,4,1.3c1,0.5,1.8,1.2,2.5,2
				c0.6,0.7,1.1,1.5,1.3,2.3c0.2,0.8,0.4,1.7,0.4,2.6v0.7c0,0.9-0.1,1.7-0.3,2.5c-0.3,0.9-0.7,1.7-1.3,2.4c-0.7,0.8-1.5,1.5-2.4,2.1
				c-1.3,0.7-2.6,1.1-4,1.4c-1.9,0.4-3.9,0.6-5.9,0.5L74.2,10z M81.6-3.4v8.6H87c4.8,0,7.1-1.4,7.1-4.3V0.8c0-2.8-2.4-4.2-7.1-4.2
				L81.6-3.4z"/>
			<path class="st8" d="M117-8.6h1.2c1.6,0,3.1,0.1,4.7,0.3c1.2,0.2,2.4,0.5,3.6,0.9c0.9,0.3,1.7,0.8,2.5,1.3c0.6,0.4,1.2,1,1.7,1.6
				c0.4,0.5,0.8,1.1,1,1.7c0.2,0.5,0.4,1.1,0.5,1.7c0.1,0.5,0.1,1.1,0.1,1.6v0.7c0,0.5,0,1.1-0.1,1.6c-0.1,0.6-0.3,1.2-0.5,1.7
				c-0.2,0.6-0.6,1.2-1,1.7c-0.5,0.6-1.1,1.1-1.7,1.6c-0.8,0.6-1.6,1-2.5,1.3c-1.1,0.4-2.3,0.7-3.5,0.9c-1.6,0.2-3.1,0.3-4.7,0.3
				H117c-1.6,0-3.2-0.1-4.7-0.3c-1.2-0.2-2.4-0.5-3.6-0.9c-0.9-0.3-1.8-0.8-2.5-1.3c-0.6-0.4-1.2-1-1.7-1.6c-0.4-0.5-0.7-1.1-1-1.7
				c-0.2-0.5-0.4-1.1-0.5-1.7c-0.1-0.5-0.1-1.1-0.1-1.6V0.5c0-0.5,0-1.1,0.1-1.6c0.1-0.6,0.3-1.2,0.5-1.7c0.2-0.6,0.6-1.2,1-1.7
				c0.5-0.6,1.1-1.1,1.7-1.6c0.8-0.5,1.6-1,2.5-1.3c1.2-0.4,2.3-0.7,3.6-0.9C113.9-8.5,115.5-8.6,117-8.6z M124.6,1V0.7
				c0-0.5-0.1-1-0.3-1.5c-0.3-0.5-0.6-1-1.1-1.4c-0.6-0.5-1.4-0.9-2.2-1.1c-1.1-0.3-2.3-0.4-3.5-0.4c-1.2,0-2.4,0.1-3.5,0.4
				c-0.8,0.2-1.5,0.5-2.2,1.1c-0.4,0.4-0.8,0.8-1,1.4c-0.2,0.5-0.3,1-0.3,1.5V1c0,0.5,0.1,1.1,0.3,1.5c0.2,0.5,0.6,1,1,1.4
				c0.6,0.5,1.4,0.9,2.2,1.1c1.1,0.3,2.3,0.4,3.5,0.4c1.2,0,2.4-0.1,3.5-0.4c0.8-0.2,1.6-0.6,2.2-1.1c0.4-0.4,0.8-0.9,1-1.4
				C124.5,2.1,124.7,1.5,124.6,1L124.6,1z"/>
			<path class="st8" d="M134.1,10V-8.2h10.1L150.2,2l6-10.3h9.7V10h-7.3V-1.4L151.8,10h-3.8l-6.7-11.4V10H134.1z"/>
			<path class="st8" d="M175.4-8.5h0.9c1.1,0,2.2,0.1,3.3,0.3c0.8,0.2,1.5,0.4,2.3,0.8c0.5,0.3,1,0.7,1.4,1.2
				c0.3,0.4,0.6,0.9,0.7,1.3c0.1,0.4,0.2,0.9,0.2,1.4v0.3c0,0.6-0.1,1.2-0.4,1.8c-0.3,0.6-0.7,1.1-1.2,1.6c-0.7,0.6-1.5,1-2.4,1.2
				c-1.2,0.3-2.5,0.5-3.8,0.4h-0.9c-1.3,0-2.6-0.1-3.9-0.4c-0.9-0.2-1.7-0.6-2.4-1.2c-0.5-0.4-0.9-1-1.2-1.6
				c-0.2-0.6-0.4-1.2-0.4-1.8v-0.3c0-0.5,0.1-0.9,0.2-1.4c0.1-0.5,0.4-0.9,0.7-1.3c0.4-0.5,0.8-0.9,1.4-1.2c0.7-0.4,1.5-0.6,2.3-0.8
				C173.2-8.4,174.3-8.5,175.4-8.5z M175.9,0.3L175.9,0.3c1,0,1.9-0.1,2.9-0.2c0.6-0.1,1.2-0.3,1.8-0.6c0.4-0.2,0.7-0.5,1-0.9
				c0.2-0.3,0.4-0.6,0.5-1c0.1-0.3,0.1-0.7,0.1-1c0-0.3,0-0.7-0.1-1c-0.1-0.3-0.2-0.7-0.5-0.9c-0.3-0.4-0.6-0.7-1-0.8
				c-0.6-0.3-1.2-0.5-1.8-0.6c-0.9-0.2-1.9-0.2-2.8-0.2h-0.1c-1.1,0-2.3,0.1-3.4,0.3c-0.7,0.1-1.4,0.4-1.9,0.9
				c-0.3,0.3-0.6,0.7-0.8,1.1c-0.1,0.4-0.2,0.9-0.2,1.4c0,0.3,0,0.7,0.1,1c0.1,0.4,0.2,0.7,0.5,1c0.3,0.4,0.6,0.7,1,0.9
				c0.6,0.3,1.2,0.5,1.8,0.6C174,0.3,174.9,0.3,175.9,0.3L175.9,0.3z M174.8-2.5v1.7h-2.9V-6h5.8c1.7,0,2.6,0.5,2.6,1.4v0
				c0,0.3-0.1,0.6-0.4,0.8c-0.3,0.2-0.6,0.3-0.9,0.4c0.9,0.2,1.4,0.6,1.4,1.3v0.9c0,0.2,0,0.4,0.2,0.5v0.1h-3
				c-0.1-0.1-0.1-0.2-0.1-0.3v-0.6c0-0.2,0-0.4-0.2-0.6c-0.2-0.1-0.4-0.2-0.6-0.2L174.8-2.5z M174.8-3.8h1.8c0.4,0,0.6-0.2,0.6-0.5
				c0-0.3-0.2-0.4-0.6-0.4h-1.8V-3.8z"/>
		</g>
	</g>
</g>
</svg>
